<svg width="20" height="20" viewBox="0 0 20 20" fill="none" xmlns="http://www.w3.org/2000/svg">
<g id="vuesax/linear/crown">
<g id="Group 1597879750">
<path id="Vector" d="M14.5778 16.3868H5.53299C5.21822 16.3868 4.86598 16.1394 4.76106 15.8397L2.65832 7.16106C2.21615 5.91698 2.73327 5.53476 3.79749 6.2992L6.72036 8.39016C7.2075 8.72741 7.7621 8.55504 7.97194 8.00794L9.29098 4.49303C9.71067 3.36886 10.4077 3.36886 10.8274 4.49303L12.1464 8.00794C12.3562 8.55504 12.9108 8.72741 13.3905 8.39016L16.1335 6.4341C17.3026 5.59472 17.8647 6.0219 17.3851 7.3784L15.3573 15.8547C15.2449 16.1394 14.8926 16.3868 14.5778 16.3868Z" stroke="#EF6F1F" stroke-width="1.25" stroke-linecap="round" stroke-linejoin="round"/>
<path id="Vector_2" d="M8.18115 13.6545H11.9284" stroke="#EF6F1F" stroke-width="1.25" stroke-linecap="round" stroke-linejoin="round"/>
</g>
</g>
</svg>
