<svg width="24" height="24" viewBox="0 0 24 24" fill="none" xmlns="http://www.w3.org/2000/svg">
<path d="M11.8056 8.11111V9.08333M11.8056 15.8889V14.9167M13.7399 10.4444C13.6893 9.68533 13.0632 9.08333 12.2917 9.08333H11.2261C10.4717 9.08333 9.86111 9.69467 9.86111 10.4483C9.86111 11.0744 10.2873 11.6204 10.894 11.7729L12.7163 12.2302C13.3238 12.3827 13.7492 12.9287 13.7492 13.5548C13.7492 14.3092 13.1379 14.9198 12.3842 14.9198H11.3187C10.5456 14.9198 9.91944 14.3162 9.86967 13.5556M6.41244 16.1907C7.69267 17.8909 9.72033 19 12 19C15.85 19 19 15.85 19 12C19 8.15 15.85 5 12 5C8.15 5 5 8.15 5 12C5 13.5703 5.53044 15.0193 6.41244 16.1907Z" stroke="#EF6F1F" stroke-width="1.5" stroke-linecap="round" stroke-linejoin="round"/>
</svg>
