<svg width="20" height="20" viewBox="0 0 20 20" fill="none" xmlns="http://www.w3.org/2000/svg">
<g id="Interface, Essential/heart-style-2-cricle">
<g id="Group">
<circle id="Oval" cx="10" cy="10" r="7.5" stroke="white" stroke-width="1.25" stroke-linecap="round" stroke-linejoin="round"/>
<path id="Path" fill-rule="evenodd" clip-rule="evenodd" d="M13.4686 7.78192L13.469 7.78234C13.9373 8.25232 14.1894 8.89563 14.1652 9.55865C14.141 10.2217 13.8426 10.8449 13.3412 11.2794L10.8617 13.4285C10.3673 13.857 9.63303 13.857 9.1386 13.4285L6.65909 11.2794C6.15775 10.8449 5.85932 10.2217 5.83509 9.55865C5.81086 8.89563 6.063 8.25232 6.53129 7.78234V7.78234C7.41223 6.89824 8.82708 6.84655 9.77019 7.66401L10.0002 7.86329L10.2306 7.66359C11.1734 6.84636 12.5879 6.89805 13.4686 7.78192Z" stroke="white" stroke-width="1.25" stroke-linecap="round" stroke-linejoin="round"/>
</g>
</g>
</svg>
