<svg width="24" height="24" viewBox="0 0 24 24" fill="none" xmlns="http://www.w3.org/2000/svg">
<path d="M7.61091 7.64362C5.46303 9.83511 5.46303 13.3882 7.61091 15.5797L10.5835 18.6127C11.0897 19.1291 11.9103 19.1291 12.4165 18.6127L15.3891 15.5797C17.537 13.3882 17.537 9.83511 15.3891 7.64362M7.61091 7.64362C9.7588 5.45213 13.2412 5.45213 15.3891 7.64362M7.61091 7.64362Lnan nanCnan nan -nan -nan -nan -nanL-nan -nanC-nan -nan -nan -nan -nan -nanL7.61091 7.64362ZM15.3891 7.64362Lnan nanCnan nan -nan -nan -nan -nanL-nan -nanC-nan -nan nan nan nan nanL15.3891 7.64362ZM13.3876 11.6118C13.3876 12.6752 12.5427 13.5373 11.5005 13.5373C10.4583 13.5373 9.61338 12.6752 9.61338 11.6118C9.61338 10.5484 10.4583 9.68637 11.5005 9.68637C12.5427 9.68637 13.3876 10.5484 13.3876 11.6118Z" stroke="#EF6F1F" stroke-width="1.5" stroke-linecap="round" stroke-linejoin="round"/>
</svg>
