<svg width="20" height="20" viewBox="0 0 20 20" fill="none" xmlns="http://www.w3.org/2000/svg">
<g id="Iconly/Regular/Light/Buy">
<g id="Buy">
<path id="Stroke 1" d="M2.5 2.5L4.18649 2.7919L4.9673 12.0945C5.02973 12.8542 5.6646 13.4372 6.42676 13.4348H15.2719C15.9992 13.4364 16.6162 12.9013 16.7192 12.1812L17.4887 6.86386C17.5746 6.26952 17.1619 5.71816 16.5684 5.63222C16.5165 5.62492 4.4573 5.62086 4.4573 5.62086" stroke="white" stroke-width="1.25" stroke-linecap="round" stroke-linejoin="round"/>
<path id="Stroke 3" d="M11.7227 8.61757H13.971" stroke="white" stroke-width="1.25" stroke-linecap="round" stroke-linejoin="round"/>
<path id="Stroke 5" fill-rule="evenodd" clip-rule="evenodd" d="M6.07072 16.2456C6.31478 16.2456 6.5118 16.4434 6.5118 16.6867C6.5118 16.9308 6.31478 17.1286 6.07072 17.1286C5.82667 17.1286 5.62964 16.9308 5.62964 16.6867C5.62964 16.4434 5.82667 16.2456 6.07072 16.2456Z" fill="white" stroke="white" stroke-width="1.25" stroke-linecap="round" stroke-linejoin="round"/>
<path id="Stroke 7" fill-rule="evenodd" clip-rule="evenodd" d="M15.2174 16.2456C15.4615 16.2456 15.6593 16.4434 15.6593 16.6867C15.6593 16.9308 15.4615 17.1286 15.2174 17.1286C14.9734 17.1286 14.7764 16.9308 14.7764 16.6867C14.7764 16.4434 14.9734 16.2456 15.2174 16.2456Z" fill="white" stroke="white" stroke-width="1.25" stroke-linecap="round" stroke-linejoin="round"/>
</g>
</g>
</svg>
