<svg width="20" height="20" viewBox="0 0 20 20" fill="none" xmlns="http://www.w3.org/2000/svg">
<g id="vuesax/linear/profile-add">
<g id="Group 1597879748">
<path id="Vector" d="M10.1342 9.1525C10.0592 9.145 9.96915 9.145 9.88665 9.1525C8.10163 9.0925 6.68411 7.63 6.68411 5.83C6.67661 3.9925 8.16913 2.5 10.0067 2.5C11.8442 2.5 13.3367 3.9925 13.3367 5.83C13.3367 7.63 11.9117 9.0925 10.1342 9.1525Z" stroke="white" stroke-width="1.25" stroke-linecap="round" stroke-linejoin="round"/>
<path id="Path" fill-rule="evenodd" clip-rule="evenodd" d="M13.4317 14.1039L13.2447 14.3038L13.0572 14.1039C12.6463 13.6657 11.9648 13.6298 11.5105 14.022V14.022C11.046 14.4227 10.9908 15.1176 11.3728 15.5987C11.9193 16.2866 12.5456 16.9659 13.2447 17.5C13.9615 16.9525 14.6012 16.2528 15.1573 15.5472C15.5184 15.0892 15.444 14.4243 15.0036 14.0434L14.9832 14.0257C14.5246 13.6298 13.8426 13.6657 13.4317 14.1039V14.1039Z" stroke="white" stroke-width="1.25" stroke-linecap="round" stroke-linejoin="round"/>
<path id="Vector_2" d="M10.0065 17.3575C8.6415 17.3575 7.28398 17.0125 6.24896 16.3225C4.43394 15.1075 4.43394 13.1275 6.24896 11.92C8.31149 10.54 11.694 10.54 13.7566 11.92" stroke="white" stroke-width="1.25" stroke-linecap="round" stroke-linejoin="round"/>
</g>
</g>
</svg>
